<svg xmlns="http://www.w3.org/2000/svg" xml:space="preserve" style="enable-background:new 0 0 500 500" viewBox="0 0 500 500">
  <path d="M458.6 263.1c7.1-1.7 14.1-1.9 21.1.1 2.5.7 4.1 2.7 4 5.3-.4 13.3-1.3 26.6-7.5 38.8-4.7 9.2-12.6 13.5-22.7 13.7-6.5.2-13 .1-19.5.1-52.8 0-105.6.1-158.4.1-6.8 0-13.6-.4-20.3-2-17.1-4.1-26.5-15.7-27.8-33.4-1.4-20-4.7-39.6-13.1-58-2.5-5.3-5.4-10.4-9.9-14.4-8.6-7.6-19.3-6.4-25.8 3-5.4 7.8-7 16.9-8.1 26.1-2.1 17.7-2.3 35.4 2.4 52.9 1.5 5.6 3.8 10.7 7.6 15.1 7.5 8.7 18.1 7.7 24.2-1.9 5.1-8.1 6.6-17.1 7-26.3.9-18.4-2.8-35.9-10.6-52.5-.7-1.4-1.4-2.8-2.4-4.1-4.1-5.4-10.2-5.4-14.3.1-1.8 2.4-3.1 5.1-4.1 8-.9 2.8-2.2 5.4-2.6 9.1-2.5-3.4 2.7-17.6 5.5-21.6 5.3-7.8 13.9-8 19.8-.6 4.9 6.2 7.5 13.6 9.5 21.1 5 18.2 7.1 36.7 4.1 55.5-1.2 7.7-3.2 15.2-8.1 21.6-8.9 11.6-24.3 11-32.3-1.3-6-9.1-8.2-19.6-9.4-30.1-2.2-19.1-2.4-38.3 1.7-57.2.9-4.2 2.2-8.2 4.1-12.1 9.1-19.2 30-16.4 40-4.9 7.9 9.1 12 20 15.4 31.2 4.2 13.7 5.5 28 9.1 41.8 5.1 19.6 14.9 27.3 35.3 27.9 12.4.3 24.7.4 37.1.4 46.1.1 92.3 1.4 138.4.3 13.5-.3 22.4-8.1 25.3-21.3 1.2-5.6 1.7-11.3 1.9-17 .2-6.4-1.8-9.2-8.2-10.5-2.8-1-5.9-1-8.4-3zm-174.6-.2c-8.1-1.3-16-3.4-20.7-10.9-5.4-8.6-3.4-12.5 6.8-13 11.4-.5 22.8-.5 34.2.3 13.4 1 25 5 32.3 17.6 2.8 4.8 7.8 7.4 13.2 8.6 21.7 4.7 43.5 3.3 65.1-.7 6.2-1.1 12.2-4.1 14.6-10.3 3.7-9.3 10.7-11.8 19.6-11.8 8.4 0 16.8.1 25.1-1.9 2.9-.7 6.3-.9 7.2-4.4.9-3.4-2.2-5-4.1-6.9-.5-.6-1.3-1-1.9-1.4-22.1-13.5-45.9-22.7-71.3-27.8-25.6-5.1-51.6-6.2-77.6-6.4-27.3-.2-54.5 1.5-81.8.3-19.5-.8-38.5-3.6-54.9-15.7-7.1-5.3-14.5-10.2-22.8-13.5-2.4-.9-4.7-2.9-9-1.8 15.4 7.6 26.5 19.1 39.7 27.6 6.4 4.2 13.7 6.6 21.2 7.9 19.4 3.5 39.1 3.9 58.7 3.4 26.1-.7 52.3-1.7 78.4-1.8 15.4-.1 30.8.1 46 2.9 21.9 4 42.1 12.5 61.6 23 2.4 1.3 6.5 2.2 5.9 5.2-.7 3.4-4.9 2.7-7.8 2.8-8.1.4-16.2-.1-24.1 1.8-5.3 1.2-9.5 3.8-11.4 9-3.3 9.1-10.5 12.5-19.3 14-13.4 2.4-26.9 2.3-40.3 1.6-10.8-.5-20.8-3.3-26.8-13.5-4.7-7.9-11.6-12.3-20.4-14.2-3.6-.8-7.2-1.3-10.8-1.6-16-1.1-32-2.1-47.9 1-7 1.3-9.8 5-8.4 11.7 1.7 8.1 5.7 14.6 14 17.8 9.2 3.7 18.9 3.7 29.4 3.8-4.2-1.5-7.9-2.1-11.7-2.7zm-126.7-11.8c-.8 4.7-1.8 9.3-1.8 14.1-.1 11.3 2.2 22.4 1.7 33.7-.4 9.4-4.5 13.6-13.9 13.6-13.8.1-27.6 0-41.4 0-9.9 0-12.5-2.2-14.1-12-.3-1.7-.4-3.5-.4-5.2-.3-16-1.1-32-4.1-47.8-1.7-9.1-2.9-18.6-9.6-26-7.2-8.1-17.1-7.4-23.3 1.6-3.7 5.4-6 11.5-7.5 17.9-4.2 18.7-3.6 37.5-1.4 56.3 1 8.3 2.7 16.6 7.5 23.8 4.3 6.6 10.5 7 15.7 1.1 4.3-4.8 6.2-10.6 7.4-16.7 3.4-17.4 2.3-34.7-.4-52-1.1-7-2.2-14.1-5.6-20.5-1.5-2.8-3.6-5.1-7.2-3.6-3.3 1.3-5.8 6.5-5.3 10.4 5.3-6.5 7.8-6.1 11 2.1.6 1.5 1.1 3 1.4 4.5 3.3 17.1 2.7 34.4 1.3 51.6-.4 4.7-1.5 9.4-4.2 13.5-3.7 5.7-8.6 5.8-12.5.3-1.7-2.3-2.9-4.9-3.6-7.7-5.1-20.4-4.7-40.8-.4-61.2 1.2-5.8 3.3-11.3 7-16 4.8-6 10.8-5.9 15.4.3 3.3 4.4 5 9.5 6.3 14.7 4.2 16.1 5 32.5 5.2 49 0 5.7.1 11.4.7 17.1.6 6.7 4.2 10.8 9.8 10.9 19.5.4 39 .7 58.5-.2 6-.3 9.5-3.6 11-9.5 1.3-5 .4-10.1.1-15.1-1.1-15.1-3.7-30.2-1.3-45.5.3-1.5-1.6.1-2 2.5zm-34.8 38.8c-6.1-4.8-10.6-10.8-14.2-17.6-4.4-8.3-6.7-17.4-9.4-26.3-2.3-7.3-4.1-14.6-5.1-22.2-1.7-12.4 3.4-19.4 15.7-21.6 5.4-1 10.7-.7 16.1-.2 14.7 1.5 29.5 1 44.1-1.3 10.3-1.6 12.7-8.6 6-16.6-5-6-11.1-10.9-18-14.6-20.4-10.8-41.4-10.2-62.6-2.7-12 4.2-22.2 11.3-31 20.5-6.8 7-14.2 13.2-24.7 13.9-7 .5-11.6 4.6-15.3 10-3.3 4.8-5 10.2-5.7 15.9-2.1 17.4.8 34.1 6.6 50.4 2.1 5.9 4.3 11.8 8.3 16.9-.4-3-1.3-5.7-2.2-8.5-5.5-18-9.5-36.1-6.7-55.1 2.4-16.2 8.7-23.2 24.8-25.7 6.9-1 11.9-4.3 16.4-9.4 18.6-21.4 41.9-31.7 70.4-29 14.8 1.4 27.2 8.1 37 19.3 5 5.7 3.6 9.2-3.8 10.8-5.8 1.2-11.7 1.2-17.5 1.1-14.4-.4-28.8-1.1-43.3-1.2-13-.1-19.9 6.9-20.3 19.9-.1 2.4.1 4.8.2 7.1.7 10 3.8 19.6 6.8 29.1 3.1 9.9 6.1 20 12.6 28.5 4.6 6 10.3 10.2 17.8 12.8-.2-2.7-1.8-3.3-3-4.2zm32.8-138.4c.8 0 1.6 0 2.4-.1 8.5-.5 17.1-1.2 25.6-1.5 32-1.1 64-.4 95.7 5.1 21.3 3.7 42 9.3 61.6 18.6 6.8 3.2 13.1 7.3 20.1 11.2-.7-2.6-2.3-3.8-3.8-4.9-7-5.1-14.2-10-22-13.9-29.4-14.5-61.1-19.1-93.4-20.7-22.3-1.1-44.7-.4-66.9 1.9-24.2 2.6-20.5 4.3-19.3 4.3z"/>
</svg>
